<svg xmlns="http://www.w3.org/2000/svg" viewBox="0 0 512 512" role="img" aria-label="Texas SandFest app icon">
  <rect width="512" height="512" rx="96" fill="#f7b733"/>
  <path fill="#12333a" d="M84 326c44-42 95-60 152-55 43 4 78 23 114 45 25 15 51 31 82 40v58c-43-9-77-30-108-49-34-21-62-37-94-40-39-4-74 10-108 43z"/>
  <path fill="#006d77" d="M74 206c39-37 85-53 138-48 38 4 69 21 101 40 30 18 61 36 100 40v55c-50-4-88-27-122-47-31-18-55-32-84-35-36-3-67 9-98 38z"/>
  <path fill="#fffdf7" d="M135 137h242v46H135zM167 93h178v42H167z"/>
  <path fill="#e85d4a" d="M139 259h57v57h-57zM225 211h57v57h-57zM310 267h57v57h-57z"/>
</svg>
